<svg xmlns="http://www.w3.org/2000/svg" width="100%" height="100%" viewBox="0 0 28.413 25.47">
  <path id="Icon_material-shopping-basket" data-name="Icon material-shopping-basket" d="M21.7,12.029,16.241,3.571a1.224,1.224,0,0,0-1.034-.541,1.206,1.206,0,0,0-1.034.554L8.715,12.029H2.746A1.272,1.272,0,0,0,1.5,13.318a1.121,1.121,0,0,0,.05.348L4.715,25.618A2.493,2.493,0,0,0,7.107,27.5h16.2a2.519,2.519,0,0,0,2.4-1.882l3.165-11.951.037-.348a1.272,1.272,0,0,0-1.246-1.289Zm-10.23,0,3.738-5.673,3.738,5.673Z" transform="translate(-1 -2.53)" fill="none" stroke="#000" stroke-linecap="square" stroke-linejoin="round" stroke-width="1"/>
</svg>
